<svg xmlns="http://www.w3.org/2000/svg" xmlns:xlink="http://www.w3.org/1999/xlink" fill="none" version="1.1" width="61" height="61" viewBox="0 0 61 61"><defs><mask id="master_svg0_866_14297" style="mask-type:alpha" maskUnits="userSpaceOnUse"><g><rect x="0" y="0" width="61" height="61" rx="0" fill="#FFFFFF" fill-opacity="1"/></g></mask></defs><g><g><g mask="url(#master_svg0_866_14297)"><g><path d="M7.610202997128665,10.187012559814452C6.211392997128666,10.187012559814452,5.070762997128665,11.325672559814453,5.070762997128665,12.723722559814453L5.070762997128665,53.31484255981445C5.070762997128665,54.71514255981445,6.211392997128666,55.851542559814455,7.610202997128665,55.851542559814455L53.32445299712867,55.851542559814455C54.72625299712867,55.851542559814455,55.86395299712866,54.71514255981445,55.86395299712866,53.31484255981445L55.86395299712866,12.723722559814453C55.86395299712866,11.325672559814453,54.72625299712867,10.187012559814452,53.32445299712867,10.187012559814452L7.610202997128665,10.187012559814452ZM53.32445299712867,60.92574255981445L7.610202997128665,60.92574255981445C3.4100529971286653,60.92574255981445,-0.008846435208334552,57.511242559814455,-0.008846435208334552,53.31484255981445L-0.008846435208334552,12.723722559814453C-0.008846435208334552,8.527332559814454,3.4100529971286653,5.112842559814453,7.610202997128665,5.112842559814453L53.32445299712867,5.112842559814453C57.525352997128664,5.112842559814453,60.94355299712866,8.528072559814454,60.94355299712866,12.723722559814453L60.94355299712866,53.31484255981445C60.94355299712866,57.511242559814455,57.525352997128664,60.92574255981445,53.32445299712867,60.92574255981445Z" fill="#161616" fill-opacity="1"/></g></g></g><g><path d="M17.927727441101073,15.260410391318798L17.610017441101075,15.260410391318798C16.297517441101075,15.256610391318798,15.234267441101075,14.194510391318799,15.230547441101074,12.883410391318797L15.230547441101074,2.418500391318798C15.230547441101074,1.1096303913187981,16.299747441101076,0.038610391318798065,17.610017441101075,0.038610391318798065L17.927727441101073,0.038610391318798065C19.237987441101076,0.038610391318798065,20.307147441101073,1.108890391318798,20.307147441101073,2.418500391318798L20.307147441101073,12.883410391318797C20.303447441101074,14.194510391318799,19.240967441101073,15.256610391318798,17.928467441101073,15.260410391318798M43.324347441101075,15.260410391318798L43.00654744110108,15.260410391318798C41.69404744110108,15.256610391318798,40.630847441101075,14.194510391318799,40.62714744110107,12.883410391318797L40.62714744110107,2.418500391318798C40.62714744110107,1.1096303913187981,41.696347441101075,0.038610391318798065,43.00654744110108,0.038610391318798065L43.324347441101075,0.038610391318798065C44.63454744110108,0.038610391318798065,45.70374744110107,1.108890391318798,45.70374744110107,2.418500391318798L45.70374744110107,12.883410391318797C45.70004744110108,14.194510391318799,44.63754744110108,15.256610391318798,43.32504744110108,15.260410391318798M17.768497441101076,43.1672103913188L12.688887441101073,43.1672103913188C11.292307441101075,43.1672103913188,10.149449711751075,42.0255103913188,10.149449711751075,40.6304103913188C10.149449711751075,39.2354103913188,11.292307441101075,38.0937103913188,12.688887441101073,38.0937103913188L17.768497441101076,38.0937103913188C19.165067441101073,38.0937103913188,20.307947441101074,39.2354103913188,20.307947441101074,40.6304103913188C20.307947441101074,42.0255103913188,19.165077441101076,43.1672103913188,17.768497441101076,43.1672103913188ZM33.00654744110108,43.1672103913188L27.926947441101074,43.1672103913188C26.530447441101074,43.1672103913188,25.387547441101074,42.0255103913188,25.387547441101074,40.6304103913188C25.387547441101074,39.2354103913188,26.530447441101074,38.0937103913188,27.926947441101074,38.0937103913188L33.00654744110108,38.0937103913188C34.40314744110107,38.0937103913188,35.546047441101074,39.2354103913188,35.546047441101074,40.6304103913188C35.546047441101074,42.0255103913188,34.40314744110107,43.1672103913188,33.00654744110108,43.1672103913188ZM17.768497441101076,30.482910391318796L12.688877441101074,30.482910391318796C11.292307441101075,30.482910391318796,10.149447441101074,29.3412103913188,10.149447441101074,27.9454103913188C10.149447441101074,26.549610391318797,11.292307441101075,25.4087103913188,12.688877441101074,25.4087103913188L17.768497441101076,25.4087103913188C19.165067441101073,25.4087103913188,20.307947441101074,26.5503103913188,20.307947441101074,27.9454103913188C20.307947441101074,29.340510391318798,19.165067441101073,30.482910391318796,17.768497441101076,30.482910391318796ZM48.24464744110107,30.482910391318796L43.16504744110107,30.482910391318796C41.768447441101074,30.482910391318796,40.62564744110107,29.3412103913188,40.62564744110107,27.9454103913188C40.62564744110107,26.549610391318797,41.768447441101074,25.4087103913188,43.16504744110107,25.4087103913188L48.24464744110107,25.4087103913188C49.64124744110107,25.4087103913188,50.78414744110108,26.5503103913188,50.78414744110108,27.9454103913188C50.78414744110108,29.340510391318798,49.64124744110107,30.482910391318796,48.24464744110107,30.482910391318796ZM33.00654744110108,30.482910391318796L27.926947441101074,30.482910391318796C26.530447441101074,30.482910391318796,25.387547441101074,29.3412103913188,25.387547441101074,27.9454103913188C25.387547441101074,26.549610391318797,26.530447441101074,25.4087103913188,27.926947441101074,25.4087103913188L33.00654744110108,25.4087103913188C34.40314744110107,25.4087103913188,35.546047441101074,26.5503103913188,35.546047441101074,27.9454103913188C35.546047441101074,29.340510391318798,34.40314744110107,30.482910391318796,33.00654744110108,30.482910391318796Z" fill="#161616" fill-opacity="1"/></g></g></svg>