<svg xmlns="http://www.w3.org/2000/svg" xmlns:xlink="http://www.w3.org/1999/xlink" fill="none" version="1.1" width="56" height="56" viewBox="0 0 56 56"><g><g><path d="M22.9419,0C24.3664,0.00043462,25.5474,1.10379,25.6445,2.52499C25.7416,3.94618,24.7217,5.1999,23.3104,5.39406L22.9419,5.41935L9.45497,5.41935C7.37394,5.41935,5.66142,6.99458,5.44464,9.01419L5.41935,9.45497L5.41935,46.545C5.41935,48.6261,6.99458,50.3386,9.01419,50.5554L9.45497,50.5806L46.545,50.5806C48.6261,50.5806,50.3386,49.0054,50.5554,46.9858L50.5806,46.545L50.5806,31.3708C50.583,29.947,51.6868,28.7678,53.1074,28.6717C54.528,28.5756,55.7807,29.5954,55.9747,31.0059L56,31.3708L56,46.545C56.0005,51.5344,52.1241,55.6655,47.1448,55.9819L46.545,56L9.45497,56C4.46562,56.0005,0.334547,52.1241,0.0180646,47.1448L6.89107e-8,46.545L6.89107e-8,9.45497C-0.000514969,4.46562,3.87592,0.334544,8.85523,0.0180645L9.45497,0L22.9419,0Z" fill="#161616" fill-opacity="1"/></g><g><path d="M49.68846957702637,2.479394382286072C50.69146957702637,1.4736073822860718,52.300969577026365,1.4130793822860719,53.37666957702636,2.3406913822860718C54.45236957702637,3.268304382286072,54.62916957702637,4.869174382286072,53.78186957702637,6.009204382286072L53.52176957702637,6.312684382286072L26.54419957702637,33.290194382286074C25.541179577026366,34.295994382286075,23.931709577026368,34.35659438228607,22.855984577026366,33.428894382286074C21.780259577026367,32.501294382286076,21.60343357702637,30.900494382286073,22.450776577026367,29.760394382286073L22.710905577026367,29.456894382286073L49.68846957702637,2.479394382286072Z" fill="#161616" fill-opacity="1"/></g><g><path d="M53.289438012695314,1.37821e-7C54.643538012695316,0.0000545083,55.78963801269531,0.999676,55.97383801269531,2.34116L55.99913801269531,2.70968L55.99913801269531,19.5711C55.996838012695314,20.9949,54.89293801269531,22.1741,53.47233801269532,22.2702C52.05173801269531,22.3663,50.79913801269531,21.3465,50.60503801269532,19.936L50.579738012695316,19.5711L50.579738012695316,5.41935L36.42801801269531,5.41935C35.07394801269531,5.4193,33.92778401269531,4.41968,33.74363101269531,3.07819L33.71833801269531,2.70968C33.71864011669531,1.35441,34.72019801269531,0.207799,36.06310801269531,0.0252903L36.42801801269531,0L53.289438012695314,1.37821e-7Z" fill="#161616" fill-opacity="1"/></g></g></svg>