<svg xmlns="http://www.w3.org/2000/svg" xmlns:xlink="http://www.w3.org/1999/xlink" fill="none" version="1.1" width="77" height="77" viewBox="0 0 77 77"><defs><clipPath id="master_svg0_869_13837"><rect x="0" y="0" width="77" height="77" rx="0"/></clipPath></defs><g><g clip-path="url(#master_svg0_869_13837)"><g><path d="M72.1875,4.8125L53.8711,72.1875L39.78013,57.1869L38.5,39.5924L51.051,26.2233C51.821,27.0414,52.8461,27.4505,53.8711,27.181C55.5363,26.9067,56.6864,25.1357,56.3063,23.3599C56.3063,23.2684,56.3063,23.177,56.3448,23.0904L56.4314,22.9508L72.1875,4.8125ZM62.0235,23.8411L61.1428,24.8566L61.1284,25.0924C60.7338,28.2205,58.5777,30.9444,55.7288,31.6999L55.1079,31.8299C54.1695,32.0801,53.2311,32.1379,52.3263,32.022400000000005L52.2204,32.0031L43.45206,41.3442L44.45306,55.132L51.4793,62.6154L62.0235,23.8411Z" fill="#161616" fill-opacity="1"/></g><g><path d="M72.1875,4.8125L56.3784,23.1529C56.2485,23.2925,56.2485,23.4321,56.2485,23.5716C56.6706,25.2874,55.6311,27.0227,53.9193,27.4601C52.8613,27.7198,51.7488,27.3403,51.0703,26.488L38.6299,39.8283Q38.5,39.963,38.5,40.1026L39.6646,57.75L71.4079,6.34288L72.1875,4.8125ZM72.1875,4.8125L54.0444,20.5686C53.9096,20.6938,53.7749,20.6938,53.6401,20.6938C51.8643,20.308799999999998,50.0933,21.4638,49.819,23.1289C49.5495,24.1539,49.9586,25.179,50.7767,25.949L37.4076,38.5L19.8131,37.2199L4.8125,23.1289L72.1875,4.8125ZM53.1493,14.9717L14.37975,25.5159L21.8632,32.542100000000005L35.650999999999996,33.543099999999995L44.9536,24.8084L44.891,24.3561C44.8545,23.9067,44.869,23.4546,44.9343,23.0086L45.0691,22.3493C45.6466,18.836100000000002,48.5485,16.3144,51.9028,15.8764L52.1338,15.8524L53.1493,14.9717Z" fill="#161616" fill-opacity="1"/></g><g><path d="M72.1875,4.8125L53.8471,20.6216C53.7075,20.7515,53.5679,20.7515,53.4284,20.7515C51.7127,20.3294,49.9773,21.3689,49.5399,23.0808C49.2802,24.1388,49.6597,25.2512,50.512,25.9298L37.171800000000005,38.3701Q37.037,38.5,36.897400000000005,38.5L19.25,37.2006L70.6571,5.462188L72.1875,4.8125Z" fill="#161616" fill-opacity="1"/></g></g></g></svg>