<svg xmlns="http://www.w3.org/2000/svg" xmlns:xlink="http://www.w3.org/1999/xlink" fill="none" version="1.1" width="80" height="80" viewBox="0 0 80 80"><defs><clipPath id="master_svg0_869_13843"><rect x="0" y="0" width="80" height="80" rx="0"/></clipPath></defs><g><g clip-path="url(#master_svg0_869_13843)"><g><path d="M39.9610171875,4.9951171875C42.5473171875,4.9951171875,44.6439171875,7.0917371875,44.6439171875,9.678047187499999C44.6439171875,11.3461071875,43.7718171875,12.810457187499999,42.4586171875,13.6400371875L42.4585171875,19.9805171875L64.93661718749999,19.9805171875C66.31591718749999,19.9805171875,67.4341171875,21.0987171875,67.4341171875,22.4780171875L67.4341171875,67.4341171875C67.4341171875,68.8135171875,66.31591718749999,69.9317171875,64.93661718749999,69.9317171875L14.9853571875,69.9317171875C13.6060071875,69.9317171875,12.4877971875,68.8135171875,12.4877971875,67.4341171875L12.4877971875,22.4780171875C12.4877971875,21.0987171875,13.6060071875,19.9805171875,14.9853571875,19.9805171875L37.4634171875,19.9805171875L37.4634171875,13.6400371875C36.170517187499996,12.823407187499999,35.3052171875,11.391447187499999,35.2787171875,9.7555471875L35.2780171875,9.678047187499999C35.2780171875,7.0917371875,37.3747171875,4.9951171875,39.9610171875,4.9951171875ZM61.8146171875,25.6000171875L18.1073171875,25.6000171875L18.1073171875,64.31221718750001L61.8146171875,64.31221718750001L61.8146171875,25.6000171875ZM49.3268171875,52.5268171875C49.6716171875,52.5268171875,49.9512171875,52.8064171875,49.9512171875,53.1512171875L49.9512171875,56.8975171875C49.9512171875,57.2424171875,49.6716171875,57.5219171875,49.3268171875,57.5219171875L30.5951171875,57.5219171875C30.2503171875,57.5219171875,29.9707171875,57.2424171875,29.9707171875,56.8975171875L29.9707171875,53.1512171875C29.9707171875,52.8064171875,30.2503171875,52.5268171875,30.5951171875,52.5268171875L49.3268171875,52.5268171875ZM9.3658471875,31.2195171875C9.7106871875,31.2195171875,9.9902371875,31.4990171875,9.9902371875,31.8439171875L9.9902371875,55.5707171875C9.9902371875,55.9155171875,9.7106871875,56.1951171875,9.3658471875,56.1951171875L5.6195071875,56.1951171875C5.2746651875,56.1951171875,4.9951171875,55.9155171875,4.9951171875,55.5707171875L4.9951171875,31.8439171875C4.9951171875,31.4990171875,5.2746661875,31.2195171875,5.6195071875,31.2195171875L9.3658471875,31.2195171875ZM74.3024171875,31.2195171875C74.6473171875,31.2195171875,74.9268171875,31.4990171875,74.9268171875,31.8439171875L74.9268171875,55.5707171875C74.9268171875,55.9156171875,74.6473171875,56.1951171875,74.3024171875,56.1951171875L70.5561171875,56.1951171875C70.2112171875,56.1951171875,69.9317171875,55.9155171875,69.9317171875,55.5707171875L69.9317171875,31.8439171875C69.9317171875,31.4990171875,70.2112171875,31.2195171875,70.5561171875,31.2195171875L74.3024171875,31.2195171875ZM26.8488171875,36.2146171875C29.2627171875,36.2146171875,31.2195171875,38.1715171875,31.2195171875,40.5853171875C31.2195171875,42.9992171875,29.2627171875,44.9561171875,26.8488171875,44.9561171875C24.4349171875,44.9561171875,22.4780171875,42.9992171875,22.4780171875,40.5853171875C22.4780171875,38.1715171875,24.4349171875,36.2146171875,26.8488171875,36.2146171875ZM53.0731171875,36.2146171875C55.4870171875,36.2146171875,57.4439171875,38.1715171875,57.4439171875,40.5853171875C57.4439171875,42.9992171875,55.4870171875,44.9561171875,53.0731171875,44.9561171875C50.6593171875,44.9561171875,48.7024171875,42.9992171875,48.7024171875,40.5853171875C48.7024171875,38.1715171875,50.6593171875,36.2146171875,53.0731171875,36.2146171875Z" fill="#161616" fill-opacity="1"/></g></g></g></svg>