<svg xmlns="http://www.w3.org/2000/svg" xmlns:xlink="http://www.w3.org/1999/xlink" fill="none" version="1.1" width="65" height="87" viewBox="0 0 65 87"><defs><clipPath id="master_svg0_869_20042"><rect x="0" y="24.176471710205078" width="62.39999771118164" height="62.82352828979492" rx="0"/></clipPath><clipPath id="master_svg1_869_20045"><rect x="2.5999999046325684" y="0" width="62.39999771118164" height="62.82352828979492" rx="0"/></clipPath></defs><g><g clip-path="url(#master_svg0_869_20042)"><g><path d="M10.400048828125,32.02949905395508C11.835978828125,32.02949905395508,13.000048828125,33.20145905395508,13.000048828125,34.647149053955076C13.000048828125,34.647149053955076,13.000048828125,52.97069905395507,13.000048828125,52.97069905395507C13.000048828125,55.053399053955076,13.821828828125,57.050799053955075,15.284618828125,58.52349905395508C16.747398828125,59.99619905395508,18.731348828125,60.82359905395508,20.800048828125,60.82359905395508C20.800048828125,60.82359905395508,45.723148828125,60.82359905395508,45.723148828125,60.82359905395508C45.723148828125,60.82359905395508,37.161548828125,52.20399905395507,37.161548828125,52.20399905395507C36.146248828124996,51.18169905395508,36.146248828124996,49.524299053955076,37.161548828125,48.50209905395508C38.176848828125,47.47979905395508,39.823248828125,47.47979905395508,40.838548828125,48.50209905395508C40.838548828125,48.50209905395508,53.838548828125,61.59029905395508,53.838548828125,61.59029905395508C54.853848828125,62.61249905395508,54.853848828125,64.26999905395508,53.838548828125,65.29219905395507C53.838548828125,65.29219905395507,40.838548828125,78.38039905395507,40.838548828125,78.38039905395507C39.823248828125,79.40259905395507,38.176848828125,79.40259905395507,37.161548828125,78.38039905395507C36.146248828124996,77.35819905395508,36.146248828124996,75.70069905395508,37.161548828125,74.67859905395508C37.161548828125,74.67859905395508,45.723148828125,66.05889905395509,45.723148828125,66.05889905395509C45.723148828125,66.05889905395509,20.800048828125,66.05889905395509,20.800048828125,66.05889905395509C17.352238828125,66.05889905395509,14.045638828125,64.67989905395507,11.607668828125,62.22539905395508C9.169688828125,59.771099053955076,7.800048828125,56.44189905395508,7.800048828125,52.97069905395507C7.800048828125,52.97069905395507,7.800048828125,34.647149053955076,7.800048828125,34.647149053955076C7.800048828125,33.20145905395508,8.964108828125,32.02949905395508,10.400048828125,32.02949905395508C10.400048828125,32.02949905395508,10.400048828125,32.02949905395508,10.400048828125,32.02949905395508Z" fill-rule="evenodd" fill="#000000" fill-opacity="1"/></g></g><g clip-path="url(#master_svg1_869_20045)"><g><path d="M27.83854873275757,8.61971734375C28.85384873275757,9.64196734375,28.85384873275757,11.29936734375,27.83854873275757,12.32163734375C27.83854873275757,12.32163734375,19.27699873275757,20.94122734375,19.27699873275757,20.94122734375C19.27699873275757,20.94122734375,44.200048732757566,20.94122734375,44.200048732757566,20.94122734375C47.64794873275757,20.94122734375,50.954548732757566,22.32022734375,53.39234873275757,24.77472734375C55.83034873275757,27.22922734375,57.200048732757566,30.55832734375,57.200048732757566,34.029527343750004C57.200048732757566,34.029527343750004,57.200048732757566,52.35302734375,57.200048732757566,52.35302734375C57.200048732757566,53.79872734375,56.03604873275757,54.97062734375,54.60004873275757,54.97062734375C53.16404873275757,54.97062734375,52.00004873275757,53.79872734375,52.00004873275757,52.35302734375C52.00004873275757,52.35302734375,52.00004873275757,34.029527343750004,52.00004873275757,34.029527343750004C52.00004873275757,31.94672734375,51.17814873275757,29.94932734375,49.715448732757565,28.47662734375C48.25264873275757,27.00392734375,46.26864873275757,26.17652734375,44.200048732757566,26.17652734375C44.200048732757566,26.17652734375,19.27699873275757,26.17652734375,19.27699873275757,26.17652734375C19.27699873275757,26.17652734375,27.83854873275757,34.796227343750004,27.83854873275757,34.796227343750004C28.85384873275757,35.81842734375,28.85384873275757,37.47592734375,27.83854873275757,38.49812734375C26.82314873275757,39.52022734375,25.176948732757566,39.52022734375,24.161548732757566,38.49812734375C24.161548732757566,38.49812734375,11.161570732757568,25.40982734375,11.161570732757568,25.40982734375C10.146207732757569,24.38762734375,10.146207732757569,22.730227343750002,11.161570732757568,21.70792734375C11.161570732757568,21.70792734375,24.161548732757566,8.61971734375,24.161548732757566,8.61971734375C25.176948732757566,7.59746334375,26.82314873275757,7.59746334375,27.83854873275757,8.61971734375C27.83854873275757,8.61971734375,27.83854873275757,8.61971734375,27.83854873275757,8.61971734375Z" fill-rule="evenodd" fill="#000000" fill-opacity="1"/></g></g></g></svg>