<svg xmlns="http://www.w3.org/2000/svg" xmlns:xlink="http://www.w3.org/1999/xlink" fill="none" version="1.1" width="66" height="66" viewBox="0 0 66 66"><defs><clipPath id="master_svg0_869_15331"><rect x="0" y="0" width="66" height="66" rx="0"/></clipPath></defs><g clip-path="url(#master_svg0_869_15331)"><g><path d="M8.401060000000001,30.25C8.401060000000001,30.25,19.3877,30.25,19.3877,30.25C20.0043,22.6512,22.5475,15.3572,26.7457,9.04703C16.964199999999998,11.59392,9.53703,19.9739,8.401060000000001,30.25C8.401060000000001,30.25,8.401060000000001,30.25,8.401060000000001,30.25ZM33,9.764700000000001C28.4084,15.6803,25.5992,22.7888,24.9084,30.25C24.9084,30.25,41.0916,30.25,41.0916,30.25C40.4008,22.7888,37.5917,15.6803,33,9.764700000000001C33,9.764700000000001,33,9.764700000000001,33,9.764700000000001ZM41.0916,35.75C40.4008,43.2113,37.5917,50.3198,33,56.2353C28.4084,50.3198,25.5992,43.2113,24.9084,35.75C24.9084,35.75,41.0916,35.75,41.0916,35.75C41.0916,35.75,41.0916,35.75,41.0916,35.75ZM19.3877,35.75C19.3877,35.75,8.401060000000001,35.75,8.401060000000001,35.75C9.53703,46.0262,16.964199999999998,54.406,26.7457,56.953C22.5475,50.6429,20.0043,43.3488,19.3877,35.75C19.3877,35.75,19.3877,35.75,19.3877,35.75ZM39.2543,56.953C43.4525,50.6429,45.9957,43.3488,46.6122,35.75C46.6122,35.75,57.599,35.75,57.599,35.75C56.463,46.0262,49.0358,54.406,39.2543,56.953C39.2543,56.953,39.2543,56.953,39.2543,56.953ZM57.599,30.25C57.599,30.25,46.6122,30.25,46.6122,30.25C45.9957,22.6512,43.4525,15.3572,39.2543,9.04703C49.0358,11.59392,56.463,19.9739,57.599,30.25C57.599,30.25,57.599,30.25,57.599,30.25ZM2.75,33C2.75,16.2934,16.2934,2.75,33,2.75C49.7065,2.75,63.25,16.2934,63.25,33C63.25,49.7065,49.7065,63.25,33,63.25C16.2934,63.25,2.75,49.7065,2.75,33C2.75,33,2.75,33,2.75,33Z" fill-rule="evenodd" fill="#161616" fill-opacity="1"/></g></g></svg>