<svg xmlns="http://www.w3.org/2000/svg" xmlns:xlink="http://www.w3.org/1999/xlink" fill="none" version="1.1" width="35" height="35" viewBox="0 0 35 35"><defs><clipPath id="master_svg0_852_13321"><rect x="0" y="0" width="35" height="35" rx="0"/></clipPath></defs><g clip-path="url(#master_svg0_852_13321)"><g><path d="M18.63042734375,4.01146681640625C20.28082734375,2.41758281640625,22.49112734375,1.53563141640625,24.78532734375,1.55556758840625C27.07942734375,1.57550371640625,29.27412734375,2.49573181640625,30.89652734375,4.11805681640625C32.51872734375,5.74037681640625,33.438927343749995,7.93497681640625,33.45892734375,10.22919681640625C33.47892734375,12.52343681640625,32.59692734375,14.73373681640625,31.00292734375,16.38403681640625C31.00292734375,16.38403681640625,30.98532734375,16.402136816406248,30.98532734375,16.402136816406248C30.98532734375,16.402136816406248,26.61042734375,20.77683681640625,26.61042734375,20.77683681640625C26.61042734375,20.77693681640625,26.61042734375,20.77683681640625,26.61042734375,20.77683681640625C25.72352734375,21.66423681640625,24.65582734375,22.35043681640625,23.48032734375,22.78903681640625C22.30472734375,23.22753681640625,21.04852734375,23.40803681640625,19.79712734375,23.31833681640625C18.54552734375,23.22883681640625,17.32802734375,22.87113681640625,16.22692734375,22.26953681640625C15.12582734375,21.66803681640625,14.16702734375,20.83663681640625,13.41542734375,19.83183681640625C12.93302734375,19.18693681640625,13.06472734375,18.27303681640625,13.70972734375,17.79053681640625C14.35462734375,17.30813681640625,15.26862734375,17.43983681640625,15.75102734375,18.08483681640625C16.25202734375,18.75463681640625,16.89122734375,19.30883681640625,17.62532734375,19.70983681640625C18.35932734375,20.11093681640625,19.17102734375,20.34953681640625,20.00532734375,20.40913681640625C20.83982734375,20.46893681640625,21.67722734375,20.34863681640625,22.46092734375,20.05623681640625C23.24462734375,19.76383681640625,23.95632734375,19.30633681640625,24.54762734375,18.71483681640625C24.54762734375,18.71483681640625,28.91342734375,14.34903681640625,28.91342734375,14.34903681640625C29.97072734375,13.24983681640625,30.55562734375,11.78003681640625,30.54242734375,10.25454681640625C30.52912734375,8.72507681640625,29.91562734375,7.26199681640625,28.83392734375,6.18044681640625C27.75242734375,5.09889681640625,26.28942734375,4.48540681640625,24.75992734375,4.47212681640625C23.23382734375,4.45886681640625,21.76342734375,5.04425681640625,20.66392734375,6.10247681640625C20.66392734375,6.10247681640625,18.16352734375,8.58836681640625,18.16352734375,8.58836681640625C17.59222734375,9.15622681640625,16.669027343750003,9.15353681640625,16.10112734375,8.58236681640625C15.53322734375,8.01118681640625,15.53592734375,7.08783681640625,16.10712734375,6.51997681640625C16.10712734375,6.51997681640625,18.61542734375,4.0262268164062505,18.61542734375,4.0262268164062505C18.61542734375,4.0262268164062505,18.63042734375,4.01146681640625,18.63042734375,4.01146681640625C18.63042734375,4.01146681640625,18.63042734375,4.01146681640625,18.63042734375,4.01146681640625ZM11.51947734375,12.21103681640625C12.69502734375,11.77253681640625,13.95122734375,11.59193681640625,15.20272734375,11.68153681640625C16.454127343750002,11.77123681640625,17.67172734375,12.12893681640625,18.77292734375,12.73053681640625C19.87392734375,13.33213681640625,20.83282734375,14.16343681640625,21.58432734375,15.16813681640625C22.06672734375,15.81313681640625,21.93502734375,16.727036816406248,21.29002734375,17.20943681640625C20.64512734375,17.69183681640625,19.73122734375,17.56013681640625,19.24882734375,16.91513681640625C18.74772734375,16.24533681640625,18.10852734375,15.69113681640625,17.37452734375,15.29013681640625C16.640427343749998,14.88903681640625,15.82872734375,14.65053681640625,14.99432734375,14.59083681640625C14.16002734375,14.53103681640625,13.32262734375,14.65143681640625,12.53882734375,14.94373681640625C11.75512734375,15.23613681640625,11.04346734375,15.69363681640625,10.45209734375,16.28513681640625C10.45209734375,16.28513681640625,6.08636734375,20.65093681640625,6.08636734375,20.65093681640625C5.0290173437500005,21.75023681640625,4.44415734375,23.21993681640625,4.45741734375,24.74553681640625C4.47069734375,26.27503681640625,5.08418734375,27.73803681640625,6.16573734375,28.81953681640625C7.24728734375,29.90113681640625,8.71036734375,30.51463681640625,10.23983734375,30.52793681640625C11.76532734375,30.54123681640625,13.23512734375,29.95623681640625,14.33442734375,28.89903681640625C14.33442734375,28.89903681640625,16.81872734375,26.41473681640625,16.81872734375,26.41473681640625C17.38822734375,25.84513681640625,18.31152734375,25.84513681640625,18.88112734375,26.41473681640625C19.45062734375,26.98423681640625,19.45062734375,27.90743681640625,18.88112734375,28.47713681640625C18.88112734375,28.47713681640625,16.387427343749998,30.97083681640625,16.387427343749998,30.97083681640625C16.387427343749998,30.97083681640625,16.36932734375,30.98853681640625,16.36932734375,30.98853681640625C14.71902734375,32.58243681640625,12.50872734375,33.46443681640625,10.21448734375,33.44443681640625C7.92026734375,33.424536816406246,5.72566734375,32.50423681640625,4.10334734375,30.88203681640625C2.48102234375,29.25963681640625,1.56079424375,27.06503681640625,1.54085811575,24.77083681640625C1.52092194375,22.47663681640625,2.40287234375,20.26633681640625,3.99675734375,18.61603681640625C3.99675734375,18.61603681640625,4.014517343750001,18.59803681640625,4.014517343750001,18.59803681640625C4.014517343750001,18.59803681640625,8.38932734375,14.22313681640625,8.38932734375,14.22313681640625C8.38939734375,14.22313681640625,8.38926734375,14.22323681640625,8.38932734375,14.22313681640625C9.27634734375,13.33593681640625,10.34398734375,12.64953681640625,11.51947734375,12.21103681640625C11.51947734375,12.21103681640625,11.51947734375,12.21103681640625,11.51947734375,12.21103681640625Z" fill-rule="evenodd" fill="#FFFFFF" fill-opacity="1"/></g></g></svg>