<svg xmlns="http://www.w3.org/2000/svg" xmlns:xlink="http://www.w3.org/1999/xlink" fill="none" version="1.1" width="35" height="35" viewBox="0 0 35 35"><defs><clipPath id="master_svg0_866_13460"><rect x="0" y="0" width="35" height="35" rx="0"/></clipPath></defs><g clip-path="url(#master_svg0_866_13460)"><g><path d="M18.63042734375,4.01140578125C20.28082734375,2.41752178125,22.49112734375,1.53557038125,24.78532734375,1.55550655325C27.07942734375,1.57544268125,29.27412734375,2.49567078125,30.89652734375,4.11799578125C32.51872734375,5.74031578125,33.438927343749995,7.93491578125,33.45892734375,10.22913578125C33.47892734375,12.52337578125,32.59692734375,14.73367578125,31.00292734375,16.38397578125C31.00292734375,16.38397578125,30.98532734375,16.402075781249998,30.98532734375,16.402075781249998C30.98532734375,16.402075781249998,26.61042734375,20.77677578125,26.61042734375,20.77677578125C26.61042734375,20.77687578125,26.61042734375,20.77677578125,26.61042734375,20.77677578125C25.72352734375,21.66417578125,24.65582734375,22.35037578125,23.48032734375,22.78897578125C22.30472734375,23.22747578125,21.04852734375,23.40797578125,19.79712734375,23.31827578125C18.54552734375,23.22877578125,17.32802734375,22.87107578125,16.22692734375,22.26947578125C15.12582734375,21.66797578125,14.16702734375,20.83657578125,13.41542734375,19.83177578125C12.93302734375,19.18687578125,13.06472734375,18.27297578125,13.70972734375,17.79047578125C14.35462734375,17.30807578125,15.26862734375,17.43977578125,15.75102734375,18.08477578125C16.25202734375,18.75457578125,16.89122734375,19.30877578125,17.62532734375,19.70977578125C18.35932734375,20.11087578125,19.17102734375,20.34947578125,20.00532734375,20.40907578125C20.83982734375,20.46887578125,21.67722734375,20.34857578125,22.46092734375,20.05617578125C23.24462734375,19.76377578125,23.95632734375,19.30627578125,24.54762734375,18.71477578125C24.54762734375,18.71477578125,28.91342734375,14.34897578125,28.91342734375,14.34897578125C29.97072734375,13.24977578125,30.55562734375,11.77997578125,30.54242734375,10.25448578125C30.52912734375,8.72501578125,29.91562734375,7.26193578125,28.83392734375,6.18038578125C27.75242734375,5.09883578125,26.28942734375,4.48534578125,24.75992734375,4.47206578125C23.23382734375,4.45880578125,21.76342734375,5.04419578125,20.66392734375,6.10241578125C20.66392734375,6.10241578125,18.16352734375,8.58830578125,18.16352734375,8.58830578125C17.59222734375,9.15616578125,16.669027343750003,9.15347578125,16.10112734375,8.58230578125C15.53322734375,8.01112578125,15.53592734375,7.08777578125,16.10712734375,6.51991578125C16.10712734375,6.51991578125,18.61542734375,4.0261657812500005,18.61542734375,4.0261657812500005C18.61542734375,4.0261657812500005,18.63042734375,4.01140578125,18.63042734375,4.01140578125C18.63042734375,4.01140578125,18.63042734375,4.01140578125,18.63042734375,4.01140578125ZM11.51947734375,12.21097578125C12.69502734375,11.77247578125,13.95122734375,11.59187578125,15.20272734375,11.68147578125C16.454127343750002,11.77117578125,17.67172734375,12.12887578125,18.77292734375,12.73047578125C19.87392734375,13.33207578125,20.83282734375,14.16337578125,21.58432734375,15.16807578125C22.06672734375,15.81307578125,21.93502734375,16.726975781249998,21.29002734375,17.20937578125C20.64512734375,17.69177578125,19.73122734375,17.56007578125,19.24882734375,16.91507578125C18.74772734375,16.24527578125,18.10852734375,15.69107578125,17.37452734375,15.29007578125C16.640427343749998,14.88897578125,15.82872734375,14.65047578125,14.99432734375,14.59077578125C14.16002734375,14.53097578125,13.32262734375,14.65137578125,12.53882734375,14.94367578125C11.75512734375,15.23607578125,11.04346734375,15.69357578125,10.45209734375,16.28507578125C10.45209734375,16.28507578125,6.08636734375,20.65087578125,6.08636734375,20.65087578125C5.0290173437500005,21.75017578125,4.44415734375,23.21987578125,4.45741734375,24.74547578125C4.47069734375,26.27497578125,5.08418734375,27.73797578125,6.16573734375,28.81947578125C7.24728734375,29.90107578125,8.71036734375,30.51457578125,10.23983734375,30.52787578125C11.76532734375,30.54117578125,13.23512734375,29.95617578125,14.33442734375,28.89897578125C14.33442734375,28.89897578125,16.81872734375,26.41467578125,16.81872734375,26.41467578125C17.38822734375,25.84507578125,18.31152734375,25.84507578125,18.88112734375,26.41467578125C19.45062734375,26.98417578125,19.45062734375,27.90737578125,18.88112734375,28.47707578125C18.88112734375,28.47707578125,16.387427343749998,30.97077578125,16.387427343749998,30.97077578125C16.387427343749998,30.97077578125,16.36932734375,30.98847578125,16.36932734375,30.98847578125C14.71902734375,32.58237578125,12.50872734375,33.46437578125,10.21448734375,33.44437578125C7.92026734375,33.424475781249996,5.72566734375,32.50417578125,4.10334734375,30.88197578125C2.48102234375,29.25957578125,1.56079424375,27.06497578125,1.54085811575,24.77077578125C1.52092194375,22.47657578125,2.40287234375,20.26627578125,3.99675734375,18.61597578125C3.99675734375,18.61597578125,4.014517343750001,18.59797578125,4.014517343750001,18.59797578125C4.014517343750001,18.59797578125,8.38932734375,14.22307578125,8.38932734375,14.22307578125C8.38939734375,14.22307578125,8.38926734375,14.22317578125,8.38932734375,14.22307578125C9.27634734375,13.33587578125,10.34398734375,12.64947578125,11.51947734375,12.21097578125C11.51947734375,12.21097578125,11.51947734375,12.21097578125,11.51947734375,12.21097578125Z" fill-rule="evenodd" fill="#0256FF" fill-opacity="1"/></g></g></svg>