<svg xmlns="http://www.w3.org/2000/svg" xmlns:xlink="http://www.w3.org/1999/xlink" fill="none" version="1.1" width="42" height="42" viewBox="0 0 42 42"><defs><clipPath id="master_svg0_866_13459"><rect x="0" y="0" width="42" height="42" rx="0"/></clipPath></defs><g clip-path="url(#master_svg0_866_13459)"><g><path d="M21,5.25C12.3015,5.25,5.25,12.3015,5.25,21C5.25,29.6986,12.3015,36.75,21,36.75C29.6986,36.75,36.75,29.6986,36.75,21C36.75,12.3015,29.6986,5.25,21,5.25C21,5.25,21,5.25,21,5.25ZM1.75,21C1.75,10.36852,10.36852,1.75,21,1.75C31.6314,1.75,40.25,10.36852,40.25,21C40.25,31.6314,31.6314,40.25,21,40.25C10.36852,40.25,1.75,31.6314,1.75,21C1.75,21,1.75,21,1.75,21ZM21,12.25C21.9665,12.25,22.75,13.0335,22.75,14C22.75,14,22.75,21,22.75,21C22.75,21.9665,21.9665,22.75,21,22.75C20.0335,22.75,19.25,21.9665,19.25,21C19.25,21,19.25,14,19.25,14C19.25,13.0335,20.0335,12.25,21,12.25C21,12.25,21,12.25,21,12.25ZM19.25,28C19.25,27.0335,20.0335,26.25,21,26.25C21,26.25,21.0175,26.25,21.0175,26.25C21.984,26.25,22.7675,27.0335,22.7675,28C22.7675,28.9665,21.984,29.75,21.0175,29.75C21.0175,29.75,21,29.75,21,29.75C20.0335,29.75,19.25,28.9665,19.25,28C19.25,28,19.25,28,19.25,28Z" fill-rule="evenodd" fill="#E0EAFF" fill-opacity="1"/></g></g></svg>