<svg xmlns="http://www.w3.org/2000/svg" xmlns:xlink="http://www.w3.org/1999/xlink" fill="none" version="1.1" width="35" height="35" viewBox="0 0 35 35"><defs><clipPath id="master_svg0_852_13322"><rect x="0" y="0" width="35" height="35" rx="0"/></clipPath></defs><g clip-path="url(#master_svg0_852_13322)"><g><path d="M20.7336,6.296225498046875C18.8405,5.748615498046875,16.8394,5.689525498046875,14.9173,6.1244454980468745C12.9951,6.5593654980468745,11.2144,7.474115498046875,9.74137,8.783345498046874C8.26834,10.092585498046876,7.15098,11.753635498046876,6.49355,13.611535498046875C6.22487,14.370835498046874,5.39153,14.768535498046875,4.63225,14.499835498046876C3.87298,14.231135498046875,3.47527,13.397835498046875,3.74395,12.638525498046874C4.56575,10.316185498046874,5.96245,8.239875498046874,7.80375,6.603315498046875C9.64502,4.966775498046875,11.8709,3.823329498046875,14.2736,3.279683498046875C16.6763,2.736036498046875,19.1775,2.809910498046875,21.5441,3.494408498046875C23.903,4.176725498046875,26.0512,5.443635498046875,27.7899,7.177475498046875C27.7899,7.177475498046875,32.0833,11.211885498046875,32.0833,11.211885498046875C32.0833,11.211885498046875,32.0833,5.833345498046874,32.0833,5.833345498046874C32.0833,5.027935498046875,32.7362,4.375015498046875,33.5417,4.375015498046875C34.3471,4.375015498046875,35,5.027935498046875,35,5.833345498046874C35,5.833345498046874,35,14.583335498046875,35,14.583335498046875C35,15.388735498046875,34.3471,16.041635498046872,33.5417,16.041635498046872C33.5417,16.041635498046872,24.7917,16.041635498046872,24.7917,16.041635498046872C23.9862,16.041635498046872,23.3333,15.388735498046875,23.3333,14.583335498046875C23.3333,13.777935498046874,23.9862,13.125035498046875,24.7917,13.125035498046875C24.7917,13.125035498046875,29.8601,13.125035498046875,29.8601,13.125035498046875C29.8601,13.125035498046875,25.7763,9.287785498046876,25.7763,9.287785498046876C25.7653,9.277345498046875,25.7543,9.266745498046875,25.7435,9.255955498046875C24.3504,7.862065498046875,22.6268,6.843825498046876,20.7336,6.296225498046875C20.7336,6.296225498046875,20.7336,6.296225498046875,20.7336,6.296225498046875ZM0,20.416635498046876C0,19.611235498046874,0.652918,18.958335498046875,1.45833,18.958335498046875C1.45833,18.958335498046875,10.2083,18.958335498046875,10.2083,18.958335498046875C11.0137,18.958335498046875,11.6667,19.611235498046874,11.6667,20.416635498046876C11.6667,21.222035498046875,11.0137,21.874935498046874,10.2083,21.874935498046874C10.2083,21.874935498046874,5.13997,21.874935498046874,5.13997,21.874935498046874C5.13997,21.874935498046874,9.22364,25.712235498046876,9.22364,25.712235498046876C9.23474,25.722635498046873,9.24569,25.733235498046874,9.25645,25.744035498046873C10.6497,27.137935498046875,12.3732,28.156135498046876,14.2664,28.703735498046875C16.1595,29.251335498046874,18.1606,29.310535498046875,20.0827,28.875535498046876C22.0049,28.440635498046873,23.7856,27.525835498046874,25.2586,26.216735498046877C26.7317,24.907435498046876,27.8491,23.246435498046875,28.5065,21.388435498046874C28.7751,20.629235498046874,29.6084,20.231535498046874,30.3678,20.500235498046877C31.127,20.768935498046876,31.5248,21.602235498046873,31.256,22.361435498046873C30.4342,24.683835498046875,29.0376,26.760135498046875,27.1963,28.396735498046876C25.355,30.033335498046874,23.1292,31.176635498046874,20.7264,31.720335498046875C18.3237,32.26403549804688,15.8225,32.190235498046874,13.456,31.505635498046875C11.097,30.823335498046873,8.94873,29.556435498046874,7.21016,27.822535498046875C7.21016,27.822535498046875,2.91667,23.788135498046874,2.91667,23.788135498046874C2.91667,23.788135498046874,2.91667,29.166635498046876,2.91667,29.166635498046876C2.91667,29.972035498046875,2.26374,30.624935498046874,1.45833,30.624935498046874C0.652918,30.624935498046874,0,29.972035498046875,0,29.166635498046876C0,29.166635498046876,0,20.416635498046876,0,20.416635498046876C0,20.416635498046876,0,20.416635498046876,0,20.416635498046876Z" fill-rule="evenodd" fill="#FFFFFF" fill-opacity="1"/></g></g></svg>