<svg xmlns="http://www.w3.org/2000/svg" xmlns:xlink="http://www.w3.org/1999/xlink" fill="none" version="1.1" width="66" height="66" viewBox="0 0 66 66"><defs><clipPath id="master_svg0_866_14087"><rect x="0" y="0" width="66" height="66" rx="0"/></clipPath><clipPath id="master_svg1_866_14075"><rect x="28" y="18" width="31" height="31" rx="0"/></clipPath></defs><g><g clip-path="url(#master_svg0_866_14087)"><g><path d="M8.25,13.75C6.73123,13.75,5.5,14.98123,5.5,16.5C5.5,16.5,5.5,24.75,5.5,24.75C5.5,24.75,60.5,24.75,60.5,24.75C60.5,24.75,60.5,16.5,60.5,16.5C60.5,14.981200000000001,59.2688,13.75,57.75,13.75C57.75,13.75,8.25,13.75,8.25,13.75C8.25,13.75,8.25,13.75,8.25,13.75ZM66,16.5C66,11.94366,62.3065,8.25,57.75,8.25C57.75,8.25,8.25,8.25,8.25,8.25C3.69366,8.25,0,11.94366,0,16.5C0,16.5,0,49.5,0,49.5C0,54.0565,3.69366,57.75,8.25,57.75C8.25,57.75,57.75,57.75,57.75,57.75C62.3065,57.75,66,54.0565,66,49.5C66,49.5,66,16.5,66,16.5C66,16.5,66,16.5,66,16.5ZM60.5,30.25C60.5,30.25,5.5,30.25,5.5,30.25C5.5,30.25,5.5,49.5,5.5,49.5C5.5,51.0188,6.73123,52.25,8.25,52.25C8.25,52.25,57.75,52.25,57.75,52.25C59.2688,52.25,60.5,51.0188,60.5,49.5C60.5,49.5,60.5,30.25,60.5,30.25C60.5,30.25,60.5,30.25,60.5,30.25Z" fill-rule="evenodd" fill="#FFFFFF" fill-opacity="1"/></g></g><g><rect x="5" y="13" width="56" height="40" rx="4" fill="#161616" fill-opacity="1"/></g><g clip-path="url(#master_svg1_866_14075)"><g><path d="M38.3333,23.166748046875C32.62639,23.166748046875,28,27.793138046875,28,33.500048046875C28,39.207048046875,32.62639,43.833448046875,38.3333,43.833448046875L48.6667,43.833448046875C54.373599999999996,43.833448046875,59,39.207048046875,59,33.500048046875C59,27.793138046875,54.373599999999996,23.166748046875,48.6667,23.166748046875L38.3333,23.166748046875ZM30.58333,33.500048046875C30.58333,29.219868046875,34.05312,25.750078046875,38.3333,25.750078046875L48.6667,25.750078046875C52.9469,25.750078046875,56.4167,29.219868046875,56.4167,33.500048046875C56.4167,37.780248046875,52.9469,41.250048046875,48.6667,41.250048046875L38.3333,41.250048046875C34.05312,41.250048046875,30.58333,37.780248046875,30.58333,33.500048046875ZM38.3333,28.333418046875C35.47986,28.333418046875,33.166669999999996,30.646608046875002,33.166669999999996,33.500048046875C33.166669999999996,36.353548046875,35.47986,38.666748046875,38.3333,38.666748046875C41.1868,38.666748046875,43.5,36.353548046875,43.5,33.500048046875C43.5,30.646608046875002,41.1868,28.333418046875,38.3333,28.333418046875Z" fill-rule="evenodd" fill="#FFFFFF" fill-opacity="1"/></g></g></g></svg>