<svg xmlns="http://www.w3.org/2000/svg" xmlns:xlink="http://www.w3.org/1999/xlink" fill="none" version="1.1" width="61" height="51" viewBox="0 0 61 51"><g><g><path d="M35.9723,41.081821057128906C35.9698,43.042221057128906,35.729,44.994921057128906,35.2553,46.8959210571289C34.8934,48.3099210571289,34.395,49.68462105712891,33.7671,51.000021057128905L5.4114,51.000021057128905C2.42277,51.000021057128905,-1.28261e-7,48.5500210571289,0,45.52792105712891L0,21.888401057128906C1.27201,20.999861057128907,2.63222,20.247931057128906,4.05855,19.644841057128907C19.2166,13.183711057128907,35.9858,24.443061057128908,35.9858,41.081821057128906L35.9723,41.081821057128906Z" fill="#0C3DED" fill-opacity="1"/></g><g><path d="M56.616746453475955,13.8718C55.496046453475955,13.8718,54.58754645347595,12.9531,54.58754645347595,11.8197L54.58754645347595,5.47211C54.64204645347595,4.77372,54.12794645347595,4.16216,53.43754645347595,4.10408L7.548936453475952,4.10408C6.863966453475952,4.1692,6.357736453475952,4.77861,6.412546453475952,5.47211L6.412546453475952,11.8197C6.412546453475952,12.9531,5.504006453475952,13.8718,4.383266453475953,13.8718C3.2625334534759522,13.8718,2.3539963134759523,12.9531,2.353996053475952,11.8197L2.353996053475952,5.47211C2.286032453475952,2.50716,4.616556453475952,0.0522979,7.548936453475952,0L53.43754645347595,0C56.37204645347595,0.0523729,58.706446453475955,2.5049,58.646046453475954,5.47211L58.646046453475954,11.8197C58.646046453475954,12.9531,57.73754645347595,13.8718,56.616746453475955,13.8718Z" fill="#FFFFFF" fill-opacity="1"/></g><g><path d="M55.5751,51.00001421051025L5.4114,51.00001421051025C2.42276,51.00001421051025,-1.28261e-7,48.550014210510255,0,45.527914210510254L0,15.431324210510255C-3.84783e-7,12.409164210510253,2.42276,9.959214210510254,5.4114,9.959214210510254L55.5615,9.959214210510254C58.5502,9.959214210510254,60.9729,12.409154210510254,60.9729,15.431324210510255L60.9729,45.527914210510254C60.9729,48.54471421051026,58.5584,50.992414210510255,55.5751,51.00001421051025ZM5.42493,14.063294210510254C4.67777,14.063294210510254,4.07208,14.675774210510255,4.07208,15.431314210510255L4.07208,45.527914210510254C4.07208,46.28341421051025,4.67777,46.895914210510256,5.42493,46.895914210510256L55.5751,46.895914210510256C56.3222,46.895914210510256,56.9279,46.28341421051025,56.9279,45.527914210510254L56.9279,15.431324210510255C56.9279,14.675774210510255,56.3222,14.063294210510254,55.5751,14.063294210510254L5.42493,14.063294210510254Z" fill="#FFFFFF" fill-opacity="1"/></g><g><path d="M58.97069941558838,38.00373261108398L42.41189941558838,38.00373261108398C38.38559941558838,37.98873261108399,35.12739941558838,34.687832611083984,35.11999941558838,30.616432611083987L35.11999941558838,30.383832611083985C35.12739941558838,26.314602611083984,38.387799415588375,23.017702611083983,42.41189941558838,23.010172611083984L58.97069941558838,23.010172611083984C60.09149941558838,23.010172611083984,60.99999941558838,23.928902611083984,60.99999941558838,25.062212611083986L60.99999941558838,36.00643261108398C60.97069941558838,37.118332611083986,60.07069941558838,38.00413261108399,58.97069941558838,38.00373261108398ZM42.41189941558838,27.059532611083984C40.62599941558838,27.089532611083982,39.20249941558838,28.578032611083984,39.23269941558838,30.383832611083985L39.23269941558838,30.671132611083983C39.23259941558838,32.47913261108398,40.67809941558838,33.946832611083984,42.46599941558838,33.95443261108399L56.99559941558838,33.95443261108399L56.99559941558838,27.114232611083985L42.41189941558838,27.059532611083984ZM15.00311941558838,28.769532611083985C11.640909415588379,28.769532611083985,8.915299415588379,26.013382611083983,8.915299415588379,22.613452611083986C8.91530044167838,19.213522611083985,11.640909415588379,16.457332611083984,15.00311941558838,16.457332611083984C18.365329415588377,16.457334686283986,21.090899415588378,19.213522611083985,21.090899415588378,22.613442611083983C21.083499415588378,26.010262611083984,18.36224941558838,28.762032611083985,15.00311941558838,28.769532611083985ZM15.00311941558838,20.561412611083984C13.882379415588378,20.561412611083984,12.97384941558838,21.480132611083985,12.97384941558838,22.613442611083983C12.97384941558838,23.746752611083984,13.882389415588378,24.665492611083984,15.00311941558838,24.665492611083984C16.123859415588377,24.665492611083984,17.03239941558838,23.746752611083984,17.03239941558838,22.613442611083983C17.03239941558838,21.480132611083985,16.123859415588377,20.561412611083984,15.00311941558838,20.561412611083984Z" fill="#FFFFFF" fill-opacity="1"/></g></g></svg>